<?xml version="1.0" encoding="utf-8"?>
<svg viewBox="27 18.251 717 422.122" xmlns="http://www.w3.org/2000/svg">
  <g transform="matrix(0.1, 0, 0, -0.1, 0, 712)" fill="#000000" stroke="none">
    <path d="M1758 6934 c-3 -5 -9 -33 -13 -61 -4 -29 -11 -55 -16 -59 -14 -8 -11 -40 6 -54 21 -17 19 -47 -8 -102 -34 -74 -794 -938 -824 -938 -11 0 -13 3 -5 13 8 9 7 24 -2 52 l-14 39 -10 -38 c-6 -20 -8 -44 -5 -52 3 -9 -7 -29 -26 -48 -17 -18 -57 -67 -89 -110 l-57 -78 -109 -37 c-60 -20 -114 -43 -119 -52 -8 -12 -4 -25 11 -47 12 -16 22 -34 22 -39 0 -7 -97 -72 -203 -137 -15 -9 -27 -22 -27 -30 0 -17 157 -174 181 -181 23 -8 23 -19 9 -460 -27 -829 -50 -1627 -50 -1704 l0 -86 173 -5 c304 -9 705 -2 1437 24 1204 43 1261 47 1290 72 12 10 123 16 510 24 662 14 2227 30 2998 30 l622 0 0 868 0 867 -507 506 -508 507 -199 6 c-110 3 -269 6 -355 6 -86 0 -200 3 -253 7 l-98 6 0 73 c0 69 -1 74 -27 86 -34 16 -53 52 -53 101 0 30 -4 37 -19 37 -15 0 -21 -10 -26 -40 -9 -50 -23 -52 -27 -2 -3 32 -6 37 -28 37 -23 0 -26 -5 -31 -51 -4 -34 -17 -65 -38 -94 -25 -34 -31 -53 -31 -93 l0 -50 -162 7 c-112 4 -1926 65 -1985 66 -1 0 -4 62 -5 138 l-3 137 -27 3 c-27 3 -28 6 -28 60 0 31 -4 63 -9 71 -17 27 -39 3 -46 -51 -5 -29 -10 -46 -13 -38 -6 20 -32 40 -53 40 -11 0 -19 -11 -23 -31 -3 -18 -14 -38 -24 -45 -15 -11 -17 -30 -17 -144 l0 -131 -30 5 c-16 3 -84 8 -150 12 l-121 6 -39 56 c-55 77 -75 114 -70 132 2 8 0 31 -4 50 -7 30 -9 32 -15 15 -4 -11 -11 -27 -16 -36 -5 -10 -5 -20 1 -26 12 -12 -28 -49 -63 -58 -32 -8 -29 -12 -302 392 -259 385 -280 427 -241 479 16 21 20 54 6 54 -5 0 -12 24 -16 53 -8 56 -19 85 -27 71z m30 -346 c11 -13 129 -182 261 -377 171 -253 237 -358 230 -367 -5 -6 -22 -17 -37 -23 -28 -12 -28 -14 -38 -132 -9 -109 -12 -123 -34 -139 -20 -15 -21 -19 -7 -26 39 -23 186 -157 250 -229 79 -89 77 -96 -19 -71 -40 10 -145 17 -321 21 -261 7 -263 7 -258 29 2 11 9 51 15 87 17 95 38 125 101 143 29 9 59 16 66 16 16 0 16 11 -1 75 -12 46 -18 54 -86 100 -96 65 -132 113 -158 211 -14 49 -31 87 -46 102 l-24 25 -32 -19 c-20 -12 -47 -45 -72 -89 -67 -119 -92 -138 -292 -224 -39 -17 -47 -24 -41 -38 4 -10 18 -45 30 -78 22 -59 23 -60 68 -65 72 -9 77 -18 77 -132 0 -82 -3 -100 -16 -105 -9 -3 -138 -1 -286 5 l-270 12 -231 -55 c-127 -31 -234 -54 -239 -53 -5 2 31 31 80 65 48 34 100 76 116 92 l28 29 -46 7 c-25 4 -48 10 -51 14 -2 4 44 23 102 42 l105 34 76 102 c63 83 82 103 109 108 36 7 59 31 464 490 282 320 387 435 398 435 4 0 17 -10 29 -22z m-92 -603 c13 -14 32 -56 44 -94 25 -84 70 -154 128 -198 l43 -33 -248 6 c-257 5 -333 10 -333 22 0 4 29 20 64 35 72 32 135 90 174 157 44 77 82 130 94 130 6 0 21 -11 34 -25z m692 -257 l-3 -133 -70 -11 c-39 -5 -76 -14 -83 -18 -11 -6 -12 11 -7 90 4 55 12 110 19 124 10 23 20 30 91 64 56 26 56 27 53 -116z m134 9 c47 -62 112 -142 144 -177 32 -35 50 -60 40 -56 -11 3 -80 25 -153 48 l-133 42 0 128 c0 70 4 128 9 128 5 0 47 -51 93 -113z m316 -45 c6 -9 12 -31 12 -49 l0 -34 118 3 117 3 3 38 3 39 132 -6 c73 -4 341 -13 597 -21 256 -9 668 -22 915 -30 248 -8 650 -19 895 -25 245 -5 522 -12 616 -16 l171 -6 438 -438 c240 -240 433 -440 428 -443 -11 -7 -2837 8 -3519 19 l-442 6 -6 41 c-4 23 -13 49 -21 57 -10 11 -15 47 -17 115 l-3 100 -35 -3 c-19 -2 -74 -5 -122 -8 l-86 -5 -44 37 c-101 88 -308 300 -308 316 0 24 23 34 112 49 42 7 75 16 72 20 -2 4 -39 27 -81 50 -42 23 -93 59 -113 79 -37 37 -100 122 -100 135 0 4 57 4 128 0 98 -5 130 -10 140 -23z m-1159 -97 c62 -3 122 -10 132 -16 25 -13 25 -78 -1 -229 -11 -63 -20 -116 -20 -116 0 -1 9 -4 20 -7 28 -7 41 -50 38 -121 -3 -51 -6 -61 -20 -60 -10 0 -108 1 -218 2 l-200 2 -12 24 c-13 30 4 165 23 177 12 7 26 150 28 286 1 56 21 74 74 68 23 -2 93 -7 156 -10z m848 -139 c120 -41 113 -32 113 -145 0 -54 -3 -139 -6 -189 l-7 -92 -29 0 -30 0 4 177 3 178 -53 28 c-29 16 -56 26 -60 22 -3 -3 -8 -37 -10 -76 -4 -58 -7 -68 -18 -58 -10 8 -14 36 -14 95 0 98 -2 97 107 60z m-37 -106 c0 -27 -4 -50 -10 -50 -5 0 -10 23 -10 50 0 28 5 50 10 50 6 0 10 -22 10 -50z m60 10 c18 -34 9 -74 -17 -78 -21 -3 -23 0 -23 47 0 55 19 70 40 31z m253 -141 c65 -61 122 -119 127 -129 9 -16 6 -17 -28 -9 -125 30 -130 32 -182 94 -45 53 -50 64 -50 107 0 26 4 48 8 48 5 0 61 -50 125 -111z m-260 19 c6 -8 7 -24 3 -34 -7 -19 -8 -19 -22 0 -17 24 -19 59 -2 54 6 -2 16 -11 21 -20z m-1463 -55 c0 -46 -11 -71 -31 -76 -28 -8 -28 -87 1 -94 16 -4 20 -14 20 -50 0 -36 -4 -46 -20 -50 -16 -4 -20 -14 -20 -49 0 -43 -1 -44 -32 -45 l-33 -1 30 -9 c17 -5 38 -7 48 -5 14 3 17 -3 17 -45 l0 -49 -37 -1 c-21 -1 -30 -3 -19 -6 15 -4 17 -11 13 -41 -8 -44 -13 -49 -57 -54 l-35 -3 -7 85 c-5 64 -3 92 8 114 8 16 14 44 14 62 0 21 6 37 18 43 15 9 13 10 -9 11 -34 0 -47 41 -24 76 16 25 21 114 6 114 -14 0 -21 40 -11 65 10 26 29 32 108 34 50 1 52 0 52 -26z m1355 -151 c-3 -4 -14 -1 -23 5 -25 16 -23 105 3 133 l20 22 3 -77 c2 -43 0 -80 -3 -83z m55 82 c0 -38 -3 -45 -17 -42 -32 6 -30 88 2 88 11 0 15 -11 15 -46z m48 -22 c-5 -59 -28 -52 -28 8 0 46 2 51 16 40 9 -9 14 -26 12 -48z m-1990 -67 c3 -28 -1 -43 -13 -52 -13 -8 -16 -20 -11 -38 8 -31 -1 -68 -15 -60 -14 9 -11 169 3 183 20 20 33 8 36 -33z m1887 -90 c0 -38 -4 -60 -12 -62 -10 -4 -13 13 -13 62 0 49 3 66 13 63 8 -3 12 -25 12 -63z m73 20 c4 -51 -5 -85 -23 -85 -12 0 -15 13 -15 58 0 32 3 62 7 66 15 14 28 -2 31 -39z m70 0 c4 -51 -5 -85 -23 -85 -11 0 -15 12 -15 49 0 27 3 57 6 66 11 27 29 10 32 -30z m72 20 c13 -33 -1 -100 -20 -100 -10 0 -16 13 -18 39 -6 75 18 114 38 61z m75 -7 c7 -42 -7 -93 -26 -93 -16 0 -25 62 -15 102 9 34 34 29 41 -9z m71 -2 c7 -42 -7 -91 -27 -91 -16 0 -23 43 -14 92 8 44 32 43 41 -1z m68 18 c11 -28 6 -80 -9 -100 -13 -16 -16 -17 -25 -4 -11 17 -13 63 -4 98 7 25 29 29 38 6z m70 0 c11 -28 6 -80 -9 -100 -13 -16 -16 -17 -25 -4 -12 19 -13 61 0 94 11 29 25 34 34 10z m74 -35 c3 -45 -18 -92 -35 -76 -10 11 -10 85 0 110 12 32 32 13 35 -34z m70 6 c4 -49 -5 -85 -22 -85 -23 0 -28 59 -10 118 8 26 29 5 32 -33z m70 0 c4 -51 -5 -85 -23 -85 -12 0 -15 13 -15 58 0 32 3 62 7 66 15 14 28 -2 31 -39z m60 -29 c-2 -31 -7 -57 -13 -59 -11 -2 -20 97 -10 121 12 32 26 -6 23 -62z m-2684 -72 c20 -8 21 -53 3 -79 -20 -26 -37 -10 -37 34 0 48 6 56 34 45z m-10 -120 c8 -20 -2 -54 -15 -54 -5 0 -9 16 -9 35 0 37 13 47 24 19z m286 -4 c10 -5 23 -31 30 -59 10 -43 9 -55 -4 -82 -20 -41 -20 -87 0 -128 16 -32 12 -91 -7 -91 -14 0 -11 -108 3 -112 7 -3 13 -23 13 -48 0 -25 -6 -45 -13 -48 -6 -2 -12 -14 -12 -27 0 -34 -18 -43 -103 -51 l-77 -7 0 26 c0 13 -7 27 -15 31 -10 4 -15 20 -15 50 0 30 5 46 15 50 20 7 20 74 0 112 -19 36 -19 55 0 80 16 21 21 114 6 114 -5 0 -12 13 -16 29 -7 33 27 119 54 136 51 32 109 42 141 25z m1180 -13 c0 -12 9 -28 20 -35 16 -9 20 -23 20 -62 0 -39 -4 -52 -20 -60 -15 -8 -20 -21 -20 -50 0 -29 5 -42 20 -50 15 -8 20 -21 20 -49 0 -25 -7 -44 -20 -56 -12 -11 -20 -31 -20 -51 0 -23 6 -37 20 -44 16 -9 20 -21 20 -61 0 -44 -3 -51 -25 -59 -15 -6 -25 -17 -25 -30 0 -19 -6 -20 -204 -20 l-204 0 -6 24 c-3 13 -15 26 -26 29 -17 4 -20 13 -20 56 0 40 4 52 20 61 14 8 20 21 20 45 0 24 -6 39 -20 47 -15 9 -20 24 -20 53 0 28 6 46 20 58 12 10 20 29 20 47 0 18 -8 37 -20 47 -15 13 -20 30 -20 63 0 34 5 48 20 58 11 7 20 23 20 37 l0 25 215 0 215 0 0 -23z m860 3 c0 -11 9 -25 20 -32 16 -10 20 -24 20 -66 0 -36 -4 -54 -14 -58 -30 -12 -30 -104 0 -104 23 0 18 -86 -6 -110 -11 -11 -20 -31 -20 -45 0 -14 9 -33 20 -42 15 -13 20 -30 20 -66 0 -40 -3 -50 -20 -54 -11 -3 -20 -14 -20 -24 0 -10 -3 -20 -7 -22 -5 -3 -100 -7 -213 -8 l-205 -4 3 28 c3 21 -1 27 -16 27 -37 0 -46 88 -12 117 13 11 20 30 20 53 0 24 -6 39 -20 48 -14 8 -20 23 -20 47 0 23 7 41 20 52 13 11 20 30 20 53 0 23 -7 42 -20 53 -14 12 -20 29 -20 57 0 29 5 43 20 52 12 8 20 24 20 40 l0 28 215 0 c208 0 215 -1 215 -20z m440 -116 c0 -69 -5 -134 -10 -144 -7 -13 -7 -21 0 -25 15 -9 12 -61 -5 -75 -24 -20 -38 -1 -33 45 4 35 2 43 -16 51 -27 12 -34 63 -11 80 9 7 19 31 22 54 5 33 2 45 -16 61 -20 19 -28 58 -14 72 3 4 24 7 45 7 l38 0 0 -126z m-2742 18 c2 -31 -1 -44 -13 -48 -12 -5 -14 -14 -10 -35 8 -37 -2 -69 -22 -69 -14 0 -15 12 -8 92 8 104 10 110 33 106 12 -2 18 -16 20 -46z m522 -77 l0 -45 -80 0 -80 0 0 29 c0 57 6 61 86 61 l74 0 0 -45z m6370 -815 l0 -850 -25 0 c-23 0 -25 4 -25 45 0 25 5 45 10 45 6 0 10 20 10 44 0 25 -4 48 -10 51 -5 3 -10 31 -10 61 0 30 5 54 10 54 6 0 10 18 10 39 0 22 -4 43 -10 46 -5 3 -10 28 -10 56 0 27 5 49 10 49 6 0 10 22 10 49 0 28 -4 53 -10 56 -5 3 -10 31 -10 61 0 30 5 54 10 54 6 0 10 18 10 40 0 22 -4 40 -10 40 -5 0 -10 22 -10 49 0 28 5 53 10 56 6 3 10 26 10 50 0 24 -4 47 -10 50 -5 3 -10 31 -10 61 0 30 5 54 10 54 6 0 10 18 10 40 0 22 -4 40 -10 40 -5 0 -10 22 -10 49 0 28 5 53 10 56 6 3 10 26 10 50 0 24 -4 47 -10 50 -5 3 -10 31 -10 61 0 30 5 54 10 54 6 0 10 18 10 40 0 22 -4 40 -10 40 -5 0 -10 25 -10 55 0 52 1 55 25 55 l25 0 0 -850z m-3630 784 l57 -16 7 -211 c6 -211 1 -271 -26 -289 -7 -4 -86 -8 -175 -8 -160 0 -163 0 -178 24 -13 19 -15 59 -13 252 l3 229 50 17 c65 22 200 23 275 2z m760 -2 l55 -18 3 -228 c2 -193 0 -233 -13 -252 -15 -24 -18 -24 -178 -24 -89 0 -167 4 -174 8 -33 21 -40 113 -26 374 l6 126 46 15 c63 22 211 21 281 -1z m800 0 l55 -18 3 -228 c2 -193 0 -233 -13 -252 -15 -24 -18 -24 -178 -24 -89 0 -167 4 -174 8 -33 21 -40 113 -26 374 l6 126 46 15 c63 22 211 21 281 -1z m830 2 l57 -16 6 -126 c14 -261 7 -353 -26 -374 -7 -4 -85 -8 -174 -8 -160 0 -163 0 -178 24 -13 19 -15 59 -13 252 l3 229 50 17 c65 22 200 23 275 2z m822 0 l58 -17 2 -186 c2 -239 0 -282 -19 -303 -14 -16 -36 -18 -178 -18 -145 0 -164 2 -179 18 -14 17 -16 46 -14 253 l3 234 50 17 c65 22 200 23 277 2z m-6002 -69 c0 -41 -2 -45 -25 -45 -14 0 -25 -4 -25 -10 0 -5 18 -10 40 -10 l40 0 0 -45 0 -45 -42 -1 c-36 0 -39 -2 -20 -9 18 -8 22 -17 22 -49 0 -36 -3 -40 -27 -43 -16 -2 -27 -7 -25 -13 2 -10 11 -12 65 -14 25 -1 27 -4 27 -41 0 -40 0 -40 -39 -40 -22 0 -43 -4 -46 -10 -4 -6 5 -10 20 -10 21 0 26 -4 21 -16 -3 -9 -6 -28 -6 -44 0 -25 -4 -28 -41 -32 l-41 -4 4 53 c2 38 -1 53 -9 53 -18 0 -17 87 1 97 19 11 26 111 9 118 -18 6 -17 95 0 95 9 0 12 11 9 34 -6 51 12 76 53 76 35 0 35 0 35 -45z m-485 -30 c0 -34 -3 -40 -22 -43 -21 -3 -23 1 -23 43 0 42 2 46 23 43 19 -3 22 -9 22 -43z m-25 -100 c0 -33 -4 -45 -15 -45 -18 0 -20 41 -5 71 16 29 20 23 20 -26z m2759 18 c21 -5 23 -10 18 -47 -3 -22 -10 -42 -16 -44 -7 -2 -5 -9 4 -19 17 -16 20 -69 5 -78 -7 -4 -7 -12 0 -25 13 -25 13 -56 -1 -79 -9 -14 -9 -26 0 -51 8 -25 8 -36 -1 -47 -8 -10 -8 -17 0 -25 16 -16 15 -61 0 -77 -10 -11 -10 -14 0 -18 15 -6 16 -37 1 -65 -8 -14 -8 -23 0 -31 14 -14 14 -74 0 -83 -8 -4 -8 -9 0 -17 16 -16 14 -62 -4 -77 -21 -17 -35 -3 -35 35 0 24 -6 38 -20 45 -16 9 -20 21 -20 61 0 41 3 50 15 45 16 -6 18 1 15 54 -1 19 -8 39 -16 43 -19 11 -18 52 4 73 12 12 17 33 17 68 0 37 -5 55 -17 64 -28 21 -21 92 8 92 23 0 18 86 -6 107 -33 28 -22 103 15 103 5 0 21 -3 34 -7z m-2729 -112 c0 -20 -6 -43 -12 -50 -7 -6 -13 -30 -13 -53 0 -45 -19 -62 -29 -26 -8 32 -7 141 2 154 8 13 34 23 45 17 4 -2 7 -21 7 -42z m-11 -175 c8 -9 8 -21 1 -40 -12 -32 -38 -45 -51 -25 -10 17 -12 63 -2 72 11 12 40 8 52 -7z m-19 -132 c0 -20 5 -44 11 -55 13 -24 -4 -49 -32 -49 -17 0 -19 8 -19 63 0 60 13 93 32 81 4 -3 8 -21 8 -40z m530 -3 l0 -38 -52 -7 c-97 -11 -98 -11 -98 32 0 21 3 42 7 45 3 4 37 7 75 7 l68 0 0 -39z m-56 -74 c12 -9 17 -23 14 -42 -2 -24 -8 -31 -30 -33 -16 -2 -28 -7 -28 -12 0 -5 13 -7 28 -4 36 7 62 -16 62 -57 0 -28 -2 -29 -47 -30 -44 0 -46 -1 -23 -12 14 -6 27 -12 28 -13 2 -2 1 -21 -3 -43 -6 -35 -10 -41 -31 -41 -13 0 -24 -4 -24 -10 0 -5 20 -10 45 -10 l45 0 0 -40 c0 -38 -1 -40 -32 -40 -18 0 -40 -5 -48 -10 -12 -8 -9 -10 13 -10 23 0 27 -4 27 -29 0 -39 -9 -61 -26 -61 -8 0 -14 -6 -14 -13 0 -8 14 -11 45 -9 l45 4 0 -41 c0 -39 -1 -40 -37 -46 -54 -9 -62 -13 -30 -14 26 -1 28 -3 25 -38 -3 -33 -7 -39 -33 -44 -25 -6 -22 -7 18 -8 47 -1 47 -1 47 -36 0 -31 -3 -35 -27 -36 -16 0 -37 -4 -48 -9 -18 -8 -17 -9 8 -9 23 -1 27 -5 27 -30 0 -20 -8 -35 -22 -45 -22 -16 -21 -16 20 -16 41 0 42 -1 42 -35 0 -34 -1 -35 -39 -35 -22 0 -43 -4 -46 -10 -4 -6 5 -10 19 -10 21 0 26 -5 26 -25 0 -13 -10 -33 -22 -45 l-22 -20 43 0 c49 0 53 -21 5 -31 -80 -18 -130 -5 -104 26 17 21 19 103 3 109 -16 7 -17 40 -2 68 16 31 18 106 2 112 -17 7 -17 51 0 68 18 17 28 106 14 111 -15 5 -21 130 -8 168 8 22 8 36 1 43 -15 15 -13 96 3 96 12 0 16 105 3 117 -10 10 -7 91 4 98 6 3 10 23 10 44 0 21 3 41 7 44 11 11 48 8 67 -6z m996 -37 c0 -10 9 -24 20 -30 16 -9 20 -21 20 -63 0 -41 -4 -55 -20 -65 -14 -8 -20 -23 -20 -47 0 -24 6 -37 20 -45 15 -8 20 -21 20 -53 0 -30 -6 -48 -20 -60 -12 -10 -20 -29 -20 -47 0 -18 8 -37 20 -47 15 -13 20 -30 20 -65 0 -42 -3 -48 -20 -48 -15 0 -22 -9 -26 -30 l-6 -30 -203 0 -202 0 -6 29 c-4 17 -14 30 -26 34 -30 7 -30 91 -1 107 15 8 20 21 20 50 0 29 -5 42 -20 50 -15 8 -20 21 -20 55 0 34 5 47 20 55 14 7 20 21 20 44 0 20 -8 40 -20 51 -14 13 -20 31 -20 61 0 33 5 46 20 54 12 6 20 21 20 35 l0 25 215 0 c207 0 215 -1 215 -20z m870 -15 c0 -16 6 -25 15 -25 12 0 15 -13 15 -59 0 -43 -4 -60 -15 -65 -10 -4 -15 -20 -15 -50 0 -30 5 -46 15 -50 10 -4 15 -20 15 -51 0 -31 -5 -47 -15 -51 -10 -4 -15 -20 -15 -50 0 -30 5 -46 15 -50 11 -5 15 -21 15 -60 0 -47 -2 -54 -20 -54 -15 0 -20 -7 -20 -25 0 -14 -1 -26 -2 -27 -2 -1 -96 -4 -211 -7 l-207 -6 0 28 c0 20 -7 30 -25 37 -21 8 -25 16 -25 50 0 28 6 45 20 57 24 21 29 103 6 103 -8 0 -17 12 -20 26 -9 36 2 84 20 84 24 0 18 82 -7 104 -18 15 -20 25 -16 59 3 22 13 44 21 49 9 5 16 20 16 33 l0 25 220 0 220 0 0 -25z m-2340 -4 c0 -11 -4 -31 -9 -44 -8 -21 -6 -26 10 -30 23 -6 25 -40 4 -81 -8 -15 -15 -46 -15 -67 0 -37 -20 -62 -37 -46 -9 9 -3 181 6 190 5 5 4 21 -2 36 -13 35 -4 61 23 61 13 0 20 -7 20 -19z m285 -17 c19 -47 19 -108 0 -124 -19 -16 -19 -70 0 -96 19 -26 19 -79 -1 -110 -18 -27 -14 -106 5 -112 16 -5 13 -81 -4 -98 -8 -9 -15 -24 -15 -34 0 -26 -11 -31 -95 -39 -68 -6 -75 -5 -75 11 0 10 -9 26 -20 35 -24 21 -28 91 -6 99 23 9 30 60 12 95 -19 38 -21 106 -3 112 7 2 12 22 12 52 0 30 -5 50 -12 53 -20 6 -15 71 8 120 25 51 61 71 131 72 45 0 48 -2 63 -36z m4599 -30 c14 -13 16 -59 16 -350 l0 -334 38 -24 c27 -17 60 -26 115 -31 83 -8 100 -19 112 -72 6 -31 5 -33 -19 -33 -17 0 -26 6 -26 16 0 21 -60 44 -113 44 -30 0 -49 6 -61 19 -34 37 -436 36 -457 -2 -7 -12 -23 -17 -59 -17 -64 0 -98 -14 -110 -46 -14 -35 -35 -25 -33 16 2 48 21 60 102 67 44 4 75 11 78 19 2 7 17 18 33 24 l29 12 3 333 c3 311 4 334 22 354 18 20 29 21 167 21 121 0 150 -3 163 -16z m-1558 -15 c3 -6 0 -17 -7 -24 -12 -11 -24 -11 -76 3 -56 15 -66 15 -111 1 -40 -13 -52 -14 -66 -3 -36 26 -6 34 124 34 83 0 131 -4 136 -11z m733 -3 c21 -25 -14 -34 -72 -19 -66 17 -86 16 -131 -2 -33 -14 -38 -14 -52 0 -28 28 -5 35 120 35 95 0 126 -3 135 -14z m1618 -2 c10 -26 -14 -32 -70 -17 -66 17 -86 16 -131 -2 -29 -12 -40 -13 -55 -3 -15 9 -17 15 -9 25 7 9 45 13 135 13 104 0 125 -3 130 -16z m839 -5 c15 -25 -14 -31 -88 -18 -65 11 -80 10 -114 -3 -33 -14 -42 -14 -58 -3 -10 8 -15 18 -11 24 9 15 261 15 271 0z m-3489 -26 c9 -3 21 -20 29 -37 7 -17 13 -26 14 -19 1 32 31 43 121 43 84 0 91 -2 114 -26 24 -26 25 -26 25 -6 0 28 35 50 93 58 l47 7 0 -217 0 -216 -70 0 c-68 0 -70 1 -70 26 0 14 -4 23 -10 19 -5 -3 -10 -15 -10 -26 0 -18 -8 -19 -114 -19 l-114 0 -7 28 -8 27 -10 -27 c-10 -26 -15 -28 -67 -28 l-57 0 -6 113 c-4 61 -7 159 -7 216 l0 103 46 -7 c26 -3 53 -9 61 -12z m741 -4 c12 -5 22 -17 22 -28 0 -11 5 -23 10 -26 6 -3 10 1 10 9 0 25 34 36 114 36 83 0 126 -12 126 -35 0 -8 5 -15 10 -15 6 0 10 9 10 20 0 26 36 49 93 56 l47 7 0 -217 0 -216 -70 0 c-68 0 -70 1 -70 25 0 14 -4 25 -10 25 -5 0 -10 -11 -10 -25 l0 -26 -117 3 c-114 3 -118 4 -121 26 -4 26 -22 20 -22 -9 0 -17 -7 -19 -65 -19 l-65 0 0 216 0 216 43 -7 c23 -4 52 -11 65 -16z m1620 0 c15 -6 22 -17 22 -34 0 -14 5 -25 10 -25 6 0 10 7 10 15 0 24 35 35 114 35 84 0 126 -12 126 -35 0 -9 5 -13 10 -10 6 3 10 15 10 25 0 25 24 37 88 46 l52 7 0 -179 c0 -99 -3 -196 -6 -216 l-7 -38 -63 0 c-57 0 -64 2 -64 19 0 11 -4 23 -10 26 -6 4 -10 -5 -10 -20 l0 -26 -117 3 c-114 3 -118 4 -121 26 -5 30 -22 28 -22 -3 0 -24 -2 -25 -65 -25 l-65 0 0 216 0 216 43 -7 c23 -4 52 -11 65 -16z m840 -15 c12 -8 22 -24 22 -37 1 -21 1 -21 12 -2 18 32 28 35 113 35 99 0 121 -6 130 -33 7 -21 7 -21 14 3 8 30 62 60 109 60 l32 0 0 -215 0 -216 -67 3 c-62 3 -68 5 -71 26 -4 26 -22 20 -22 -9 0 -18 -8 -19 -114 -19 l-114 0 -7 28 -8 27 -10 -27 c-10 -26 -15 -28 -69 -28 l-58 0 0 78 c0 44 -3 141 -7 217 l-6 138 49 -7 c27 -4 59 -14 72 -22z m-3455 -181 c4 -24 2 -40 -6 -45 -9 -6 -9 -10 1 -17 8 -5 12 -23 10 -47 -2 -31 -7 -39 -23 -39 -16 0 -21 9 -26 44 -3 25 -13 47 -22 53 -20 10 -23 58 -5 76 7 7 24 12 39 12 23 0 27 -5 32 -37z m-2773 1 c18 -21 2 -64 -28 -75 -28 -11 -37 7 -28 56 8 38 33 47 56 19z m-20 -119 c0 -29 -9 -55 -20 -55 -14 0 -21 50 -10 70 14 25 30 17 30 -15z m2798 -81 c2 -18 -3 -38 -11 -46 -12 -11 -12 -16 0 -26 16 -16 17 -59 1 -65 -10 -4 -10 -7 0 -18 6 -7 12 -23 12 -35 0 -12 -6 -24 -12 -27 -10 -4 -10 -7 0 -18 17 -18 16 -79 -2 -79 -8 0 -21 -3 -30 -6 -13 -5 -16 2 -16 44 0 35 -4 52 -15 56 -8 3 -15 17 -15 31 0 16 6 25 15 25 11 0 15 12 15 49 0 31 -5 53 -15 61 -15 13 -21 71 -8 84 4 4 23 6 43 4 31 -3 35 -6 38 -34z m-2778 -35 c0 -34 -3 -39 -24 -39 -13 0 -29 7 -36 15 -18 22 -4 63 23 67 33 6 37 1 37 -43z m-30 -94 c0 -24 -5 -35 -15 -35 -10 0 -15 11 -15 35 0 24 5 35 15 35 10 0 15 -11 15 -35z m17 -61 c8 -20 -8 -48 -31 -52 -12 -3 -16 4 -16 32 0 30 4 36 20 36 11 0 23 -7 27 -16z m-22 -116 c3 -24 9 -85 11 -135 l5 -93 -25 0 -26 0 0 135 c0 109 3 135 14 135 9 0 16 -16 21 -42z m2789 -48 c10 -10 22 -39 26 -64 l7 -46 -69 0 -68 0 0 71 0 71 43 -7 c23 -4 51 -15 61 -25z m-464 -70 c0 -66 -1 -70 -22 -70 -13 0 -32 7 -42 15 -15 11 -49 15 -133 15 -101 0 -115 -2 -130 -20 -10 -11 -28 -20 -40 -20 -22 0 -23 4 -23 75 l0 75 195 0 195 0 0 -70z m-2020 -30 c0 -73 -3 -90 -15 -90 -10 0 -15 10 -15 30 l0 30 -85 0 c-85 0 -85 0 -85 -26 0 -16 -5 -24 -12 -22 -13 5 -24 128 -14 155 4 10 32 13 116 13 l110 0 0 -90z m1150 0 c0 -75 -8 -84 -46 -55 -28 21 -272 22 -280 0 -4 -8 -17 -15 -30 -15 -23 0 -24 3 -24 64 0 53 3 65 18 69 9 3 95 5 190 6 l172 1 0 -70z"/>
    <path d="M3935 5208 c-59 -21 -63 -29 -66 -153 -3 -73 -9 -119 -17 -127 -17 -17 -15 -55 6 -99 l17 -38 147 -1 147 0 15 32 c18 35 21 104 6 113 -5 3 -10 39 -11 78 0 40 -4 94 -7 122 -7 48 -9 50 -52 67 -50 19 -139 22 -185 6z m138 -9 c44 -11 96 -43 86 -53 -3 -4 -25 1 -49 9 -54 19 -131 19 -177 0 -44 -19 -54 -19 -47 -1 7 17 90 55 122 56 13 0 42 -5 65 -11z m42 -63 l35 -15 0 -94 c0 -72 4 -98 15 -107 8 -7 15 -23 15 -37 0 -13 -7 -26 -15 -29 -8 -4 -15 -17 -15 -30 0 -39 -20 -27 -22 14 l-1 37 -4 -37 -4 -38 -95 0 -94 0 0 135 c0 155 0 155 95 155 31 0 65 -5 76 -10 11 -6 19 -7 19 -2 0 14 -37 22 -103 22 -97 0 -97 1 -97 -155 0 -79 -4 -136 -10 -140 -6 -3 -13 2 -16 12 -3 10 -10 26 -15 35 -12 23 -12 51 0 64 6 5 13 55 17 110 l7 102 31 10 c47 15 142 14 181 -2z"/>
    <path d="M3957 5064 c-4 -4 -7 -20 -7 -36 0 -23 4 -28 26 -28 23 0 25 3 22 32 -3 31 -25 48 -41 32z"/>
    <path d="M4044 5046 c-8 -33 1 -46 32 -46 22 0 25 4 22 33 -2 24 -8 33 -25 35 -17 3 -24 -3 -29 -22z"/>
    <path d="M3950 4946 c0 -32 3 -36 26 -36 23 0 25 3 22 33 -2 24 -8 33 -25 35 -20 3 -23 -1 -23 -32z"/>
    <path d="M4046 4962 c-10 -30 4 -53 28 -50 31 4 30 62 -1 66 -14 2 -23 -3 -27 -16z"/>
    <path d="M3950 4856 c0 -32 3 -36 26 -36 23 0 25 3 22 33 -2 24 -8 33 -25 35 -20 3 -23 -1 -23 -32z"/>
    <path d="M4046 4872 c-10 -30 4 -53 28 -50 31 4 30 62 -1 66 -14 2 -23 -3 -27 -16z"/>
    <path d="M5135 5208 c-59 -21 -63 -29 -66 -153 -3 -73 -9 -119 -17 -127 -17 -17 -15 -55 6 -99 l17 -38 147 -1 147 0 15 32 c18 35 21 104 6 113 -5 3 -10 39 -11 78 0 40 -4 94 -7 122 -7 48 -9 50 -52 67 -50 19 -139 22 -185 6z m138 -9 c44 -11 96 -43 86 -53 -3 -4 -25 1 -49 9 -54 19 -131 19 -177 0 -44 -19 -54 -19 -47 -1 7 17 90 55 122 56 13 0 42 -5 65 -11z m42 -63 l35 -15 0 -94 c0 -72 4 -98 15 -107 8 -7 15 -23 15 -37 0 -13 -7 -26 -15 -29 -8 -4 -15 -17 -15 -30 0 -39 -20 -27 -22 14 l-1 37 -4 -37 -4 -38 -95 0 -94 0 0 135 c0 155 0 155 95 155 31 0 65 -5 76 -10 11 -6 19 -7 19 -2 0 14 -37 22 -103 22 -97 0 -97 1 -97 -155 0 -79 -4 -136 -10 -140 -6 -3 -13 2 -16 12 -3 10 -10 26 -15 35 -12 23 -12 51 0 64 6 5 13 55 17 110 l7 102 31 10 c47 15 142 14 181 -2z"/>
    <path d="M5157 5064 c-4 -4 -7 -20 -7 -36 0 -23 4 -28 26 -28 23 0 25 3 22 32 -3 31 -25 48 -41 32z"/>
    <path d="M5244 5046 c-8 -33 1 -46 32 -46 22 0 25 4 22 33 -2 24 -8 33 -25 35 -17 3 -24 -3 -29 -22z"/>
    <path d="M5150 4946 c0 -32 3 -36 26 -36 23 0 25 3 22 33 -2 24 -8 33 -25 35 -20 3 -23 -1 -23 -32z"/>
    <path d="M5246 4962 c-10 -30 4 -53 28 -50 31 4 30 62 -1 66 -14 2 -23 -3 -27 -16z"/>
    <path d="M5150 4856 c0 -32 3 -36 26 -36 23 0 25 3 22 33 -2 24 -8 33 -25 35 -20 3 -23 -1 -23 -32z"/>
    <path d="M5246 4872 c-10 -30 4 -53 28 -50 31 4 30 62 -1 66 -14 2 -23 -3 -27 -16z"/>
    <path d="M6366 5205 c-21 -7 -43 -18 -50 -25 -6 -6 -12 -59 -14 -123 -2 -62 -8 -116 -13 -121 -14 -16 -10 -80 7 -114 l15 -32 147 0 147 1 18 38 c20 44 22 82 5 99 -9 9 -14 54 -17 132 l-3 118 -48 21 c-56 24 -136 27 -194 6z m157 -9 c38 -14 81 -45 73 -53 -2 -3 -25 3 -50 11 -59 20 -121 20 -176 1 -24 -8 -46 -13 -48 -10 -10 10 24 36 64 50 49 18 89 18 137 1z m32 -60 l35 -15 0 -100 c0 -56 4 -103 10 -106 13 -8 13 -40 1 -63 -5 -9 -12 -25 -15 -35 -3 -10 -10 -15 -16 -12 -6 4 -10 61 -10 140 0 156 0 155 -97 155 -91 0 -103 -6 -102 -49 2 -34 2 -34 6 -6 6 39 17 45 83 45 105 0 100 8 100 -151 l0 -139 -95 0 -95 0 -2 38 -1 37 -4 -37 c-5 -42 -23 -53 -23 -14 0 13 -7 26 -15 30 -8 3 -15 16 -15 29 0 14 7 30 15 37 11 9 15 35 15 107 l0 94 33 14 c42 19 148 19 192 1z"/>
    <path d="M6387 5063 c-4 -3 -7 -19 -7 -35 0 -23 4 -28 24 -28 26 0 40 23 31 51 -6 19 -35 26 -48 12z"/>
    <path d="M6487 5064 c-4 -4 -7 -20 -7 -36 0 -23 4 -28 26 -28 23 0 25 3 22 32 -3 31 -25 48 -41 32z"/>
    <path d="M6384 4966 c-10 -26 1 -51 22 -54 24 -3 38 20 29 49 -7 22 -43 25 -51 5z"/>
    <path d="M6487 4973 c-4 -3 -7 -19 -7 -35 0 -23 4 -28 25 -28 22 0 25 4 25 35 0 27 -4 35 -18 35 -10 0 -22 -3 -25 -7z"/>
    <path d="M6384 4876 c-10 -26 1 -51 22 -54 24 -3 38 20 29 49 -7 22 -43 25 -51 5z"/>
    <path d="M6487 4883 c-4 -3 -7 -19 -7 -35 0 -23 4 -28 25 -28 22 0 25 4 25 35 0 27 -4 35 -18 35 -10 0 -22 -3 -25 -7z"/>
    <path d="M1484 5527 c-2 -7 -3 -107 -2 -222 l3 -210 143 -3 142 -3 0 226 0 225 -140 0 c-105 0 -142 -3 -146 -13z m136 -93 l0 -57 -37 7 c-21 3 -46 6 -55 6 -15 0 -18 9 -18 50 l0 50 55 0 55 0 0 -56z m128 -1 l-3 -58 -52 -3 -53 -3 0 60 0 61 55 0 56 0 -3 -57z m-128 -134 l0 -50 -52 3 -53 3 -3 48 -3 47 55 0 56 0 0 -51z m130 -5 l0 -55 -52 3 -53 3 -3 53 -3 52 55 0 56 0 0 -56z m-130 -124 l0 -60 -55 0 -55 0 0 60 0 60 55 0 55 0 0 -60z m130 -1 l0 -60 -52 3 -53 3 -3 44 c-5 65 0 71 58 71 l50 0 0 -61z"/>
    <path d="M740 4585 c0 -88 1 -95 20 -95 19 0 20 7 20 95 0 88 -1 95 -20 95 -19 0 -20 -7 -20 -95z"/>
    <path d="M687 4663 c-4 -3 -7 -48 -7 -100 0 -86 1 -93 20 -93 18 0 20 7 20 84 0 103 -9 133 -33 109z"/>
    <path d="M742 4393 c2 -43 7 -78 13 -78 12 0 28 102 20 133 -3 12 -12 22 -21 22 -12 0 -14 -13 -12 -77z"/>
    <path d="M682 4368 c2 -66 6 -83 18 -83 12 0 16 17 18 83 3 77 2 82 -18 82 -20 0 -21 -5 -18 -82z"/>
    <path d="M742 4208 c2 -40 8 -73 13 -73 6 0 11 33 13 73 2 60 0 72 -13 72 -13 0 -15 -12 -13 -72z"/>
    <path d="M687 4264 c-10 -10 -9 -132 1 -138 22 -13 33 14 30 74 -3 58 -14 81 -31 64z"/>
    <path d="M1640 4565 l0 -75 55 0 55 0 0 75 0 75 -55 0 -55 0 0 -75z"/>
    <path d="M1790 4618 c0 -13 3 -47 6 -75 l7 -53 43 0 44 0 0 75 0 75 -50 0 c-45 0 -50 -2 -50 -22z"/>
    <path d="M1640 4400 l0 -70 55 0 55 0 0 70 0 70 -55 0 -55 0 0 -70z"/>
    <path d="M1796 4438 c-3 -18 -7 -50 -9 -70 l-3 -38 53 0 53 0 0 70 0 70 -45 0 c-42 0 -44 -1 -49 -32z"/>
    <path d="M1640 4235 l0 -75 49 0 c46 0 49 1 55 31 3 17 6 51 6 75 l0 44 -55 0 -55 0 0 -75z"/>
    <path d="M1790 4235 l0 -75 50 0 50 0 0 75 0 75 -50 0 -50 0 0 -75z"/>
    <path d="M2510 4565 l0 -75 50 0 50 0 0 75 0 75 -50 0 -50 0 0 -75z"/>
    <path d="M2654 4609 c3 -17 6 -51 6 -75 l0 -44 50 0 50 0 0 75 0 75 -56 0 -56 0 6 -31z"/>
    <path d="M2510 4400 l0 -70 50 0 50 0 0 70 0 70 -50 0 -50 0 0 -70z"/>
    <path d="M2656 4424 c-13 -95 -13 -94 49 -94 l55 0 0 70 0 70 -49 0 -48 0 -7 -46z"/>
    <path d="M2510 4235 l0 -75 44 0 c50 0 56 9 56 98 l0 52 -50 0 -50 0 0 -75z"/>
    <path d="M2650 4234 l0 -75 53 3 52 3 3 73 3 72 -56 0 -55 0 0 -76z"/>
    <path d="M3563 4480 c-18 -11 -33 -21 -33 -23 0 -1 61 -2 135 -2 74 0 135 3 135 6 0 16 -86 39 -143 39 -44 0 -71 -6 -94 -20z"/>
    <path d="M3560 4390 l0 -40 40 0 40 0 0 40 0 40 -40 0 -40 0 0 -40z"/>
    <path d="M3690 4390 l0 -40 45 0 45 0 0 40 0 40 -45 0 -45 0 0 -40z"/>
    <path d="M3560 4285 l0 -45 40 0 40 0 0 45 0 45 -40 0 -40 0 0 -45z"/>
    <path d="M3690 4285 l0 -45 45 0 45 0 0 45 0 45 -45 0 -45 0 0 -45z"/>
    <path d="M3560 4170 l0 -40 40 0 40 0 0 40 0 40 -40 0 -40 0 0 -40z"/>
    <path d="M3690 4170 l0 -40 45 0 45 0 0 40 0 40 -45 0 -45 0 0 -40z"/>
    <path d="M3560 4075 l0 -45 40 0 40 0 0 45 0 45 -40 0 -40 0 0 -45z"/>
    <path d="M3690 4076 l0 -46 46 0 45 0 -3 43 c-3 42 -3 42 -45 45 l-43 3 0 -45z"/>
    <path d="M4323 4485 c-18 -8 -33 -18 -33 -22 0 -4 60 -8 134 -8 107 0 133 2 124 12 -27 32 -167 44 -225 18z"/>
    <path d="M4310 4390 l0 -40 45 0 45 0 0 40 0 40 -45 0 -45 0 0 -40z"/>
    <path d="M4447 4423 c-4 -3 -7 -21 -7 -40 0 -33 1 -33 45 -33 l45 0 0 40 c0 40 0 40 -38 40 -21 0 -42 -3 -45 -7z"/>
    <path d="M4310 4285 l0 -45 45 0 45 0 0 45 0 45 -45 0 -45 0 0 -45z"/>
    <path d="M4447 4323 c-4 -3 -7 -24 -7 -45 l0 -38 45 0 45 0 0 45 0 45 -38 0 c-21 0 -42 -3 -45 -7z"/>
    <path d="M4310 4170 l0 -40 45 0 45 0 0 40 0 40 -45 0 -45 0 0 -40z"/>
    <path d="M4442 4173 c3 -37 4 -38 46 -41 l42 -3 0 40 0 41 -46 0 -45 0 3 -37z"/>
    <path d="M4317 4113 c-4 -3 -7 -24 -7 -45 l0 -38 45 0 45 0 0 45 0 45 -38 0 c-21 0 -42 -3 -45 -7z"/>
    <path d="M4447 4113 c-4 -3 -7 -24 -7 -45 l0 -38 45 0 45 0 0 45 0 45 -38 0 c-21 0 -42 -3 -45 -7z"/>
    <path d="M5123 4485 c-18 -8 -33 -18 -33 -22 0 -4 60 -8 134 -8 107 0 133 2 124 12 -27 32 -167 44 -225 18z"/>
    <path d="M5110 4390 l0 -40 45 0 45 0 0 40 0 40 -45 0 -45 0 0 -40z"/>
    <path d="M5247 4423 c-4 -3 -7 -21 -7 -40 0 -33 1 -33 45 -33 l45 0 0 40 c0 40 0 40 -38 40 -21 0 -42 -3 -45 -7z"/>
    <path d="M5110 4285 l0 -45 45 0 45 0 0 45 0 45 -45 0 -45 0 0 -45z"/>
    <path d="M5247 4323 c-4 -3 -7 -24 -7 -45 l0 -38 45 0 45 0 0 45 0 45 -38 0 c-21 0 -42 -3 -45 -7z"/>
    <path d="M5110 4170 l0 -40 45 0 45 0 0 40 0 40 -45 0 -45 0 0 -40z"/>
    <path d="M5242 4173 c3 -37 4 -38 46 -41 l42 -3 0 40 0 41 -46 0 -45 0 3 -37z"/>
    <path d="M5117 4113 c-4 -3 -7 -24 -7 -45 l0 -38 45 0 45 0 0 45 0 45 -38 0 c-21 0 -42 -3 -45 -7z"/>
    <path d="M5247 4113 c-4 -3 -7 -24 -7 -45 l0 -38 45 0 45 0 0 45 0 45 -38 0 c-21 0 -42 -3 -45 -7z"/>
    <path d="M5953 4480 c-18 -11 -33 -21 -33 -22 0 -2 63 -3 140 -3 77 0 140 1 140 3 0 2 -19 12 -42 22 -59 27 -162 27 -205 0z"/>
    <path d="M5950 4391 l0 -41 46 0 45 0 -3 38 c-3 36 -4 37 -45 40 l-43 3 0 -40z"/>
    <path d="M6080 4390 l0 -40 45 0 45 0 0 40 0 40 -45 0 -45 0 0 -40z"/>
    <path d="M5950 4286 l0 -46 46 0 45 0 -3 43 c-3 42 -3 42 -45 45 l-43 3 0 -45z"/>
    <path d="M6080 4285 l0 -45 45 0 45 0 0 45 0 45 -45 0 -45 0 0 -45z"/>
    <path d="M5950 4169 l0 -40 43 3 c41 3 42 4 45 41 l3 37 -45 0 -46 0 0 -41z"/>
    <path d="M6080 4170 l0 -40 45 0 45 0 0 40 0 40 -45 0 -45 0 0 -40z"/>
    <path d="M5950 4076 l0 -46 46 0 45 0 -3 43 c-3 42 -3 42 -45 45 l-43 3 0 -45z"/>
    <path d="M6080 4076 l0 -46 46 0 45 0 -3 43 c-3 42 -3 42 -45 45 l-43 3 0 -45z"/>
    <path d="M6773 4483 c-18 -9 -33 -19 -33 -23 0 -3 61 -5 135 -5 74 0 135 3 135 6 0 32 -185 49 -237 22z"/>
    <path d="M6767 4423 c-4 -3 -7 -21 -7 -40 0 -33 1 -33 45 -33 l45 0 0 40 c0 40 0 40 -38 40 -21 0 -42 -3 -45 -7z"/>
    <path d="M6900 4391 l0 -41 46 0 45 0 -3 38 c-3 36 -4 37 -45 40 l-43 3 0 -40z"/>
    <path d="M6767 4323 c-4 -3 -7 -24 -7 -45 l0 -38 45 0 45 0 0 45 0 45 -38 0 c-21 0 -42 -3 -45 -7z"/>
    <path d="M6900 4285 l0 -45 45 0 45 0 0 45 0 45 -45 0 -45 0 0 -45z"/>
    <path d="M6762 4173 c3 -37 4 -38 46 -41 l42 -3 0 40 0 41 -46 0 -45 0 3 -37z"/>
    <path d="M6900 4169 l0 -40 43 3 c41 3 42 4 45 41 l3 37 -45 0 -46 0 0 -41z"/>
    <path d="M6767 4113 c-4 -3 -7 -24 -7 -45 l0 -38 45 0 45 0 0 45 0 45 -38 0 c-21 0 -42 -3 -45 -7z"/>
    <path d="M6900 4076 l0 -46 46 0 45 0 -3 43 c-3 42 -3 42 -45 45 l-43 3 0 -45z"/>
    <path d="M1640 3645 l0 -75 50 0 50 0 0 75 0 75 -50 0 -50 0 0 -75z"/>
    <path d="M1784 3683 c3 -21 6 -55 6 -75 l0 -38 45 0 45 0 0 75 0 75 -51 0 -52 0 7 -37z"/>
    <path d="M1640 3485 l0 -75 50 0 50 0 0 75 0 75 -50 0 -50 0 0 -75z"/>
    <path d="M1802 3552 c-7 -5 -15 -38 -19 -75 l-6 -67 52 0 51 0 0 75 0 75 -32 0 c-18 0 -39 -4 -46 -8z"/>
    <path d="M1640 3320 l0 -80 44 0 c41 0 44 2 50 31 3 17 6 53 6 80 l0 49 -50 0 -50 0 0 -80z"/>
    <path d="M1780 3323 l0 -78 50 3 50 4 0 74 0 74 -50 0 -50 0 0 -77z"/>
    <path d="M2500 3640 l0 -80 50 0 50 0 0 80 0 80 -50 0 -50 0 0 -80z"/>
    <path d="M2654 3713 c-6 -5 -9 -36 -6 -81 l4 -73 47 3 46 3 0 75 0 75 -40 3 c-22 1 -45 -1 -51 -5z"/>
    <path d="M2500 3475 l0 -75 50 0 50 0 0 75 0 75 -50 0 -50 0 0 -75z"/>
    <path d="M2657 3543 c-3 -4 -8 -39 -12 -76 l-7 -68 53 3 54 3 0 70 0 70 -42 3 c-22 2 -43 -1 -46 -5z"/>
    <path d="M2500 3314 l0 -75 48 3 47 3 3 73 3 72 -51 0 -50 0 0 -76z"/>
    <path d="M2640 3316 l0 -76 55 0 56 0 -3 73 -3 72 -52 3 -53 3 0 -75z"/>
    <path d="M652 3728 c-7 -7 -12 -47 -12 -100 0 -81 2 -88 20 -88 19 0 20 7 20 94 0 95 -6 116 -28 94z"/>
    <path d="M700 3650 c0 -89 0 -90 25 -90 25 0 25 1 25 90 0 89 0 90 -25 90 -25 0 -25 -1 -25 -90z"/>
    <path d="M707 3534 c-12 -12 -8 -142 4 -150 20 -12 29 19 27 85 -3 59 -14 82 -31 65z"/>
    <path d="M644 3507 c-3 -8 -4 -45 -2 -83 2 -56 6 -69 21 -72 15 -3 17 6 17 82 0 71 -3 86 -15 86 -9 0 -18 -6 -21 -13z"/>
    <path d="M704 3337 c-3 -8 -4 -41 -2 -73 2 -44 7 -59 18 -59 12 0 15 14 15 69 0 47 -4 71 -12 73 -7 3 -15 -2 -19 -10z"/>
    <path d="M642 3263 c2 -55 6 -68 21 -71 15 -3 17 5 17 67 0 65 -2 71 -20 71 -19 0 -21 -5 -18 -67z"/>
    <path d="M5107 3704 c-4 -4 -7 -20 -7 -36 0 -25 4 -28 31 -28 28 0 30 2 27 33 -2 23 -8 33 -23 35 -12 2 -24 0 -28 -4z"/>
    <path d="M5287 3704 c-4 -4 -7 -20 -7 -36 0 -25 4 -28 31 -28 28 0 30 2 27 33 -2 23 -8 33 -23 35 -12 2 -24 0 -28 -4z"/>
    <path d="M5104 3606 c-12 -32 0 -61 29 -64 26 -3 27 -1 27 37 0 37 -2 41 -25 41 -14 0 -28 -6 -31 -14z"/>
    <path d="M5287 3614 c-4 -4 -7 -22 -7 -41 0 -30 3 -33 31 -33 29 0 30 2 27 38 -2 28 -8 38 -23 40 -12 2 -24 0 -28 -4z"/>
    <path d="M5104 3506 c-11 -29 1 -51 29 -54 25 -3 27 -1 27 32 0 32 -3 36 -25 36 -14 0 -28 -6 -31 -14z"/>
    <path d="M5287 3513 c-4 -3 -7 -19 -7 -35 0 -24 4 -28 30 -28 28 0 30 3 30 35 0 30 -3 35 -23 35 -13 0 -27 -3 -30 -7z"/>
    <path d="M5104 3416 c-12 -32 0 -61 29 -64 26 -3 27 -1 27 37 0 37 -2 41 -25 41 -14 0 -28 -6 -31 -14z"/>
    <path d="M5282 3393 c3 -33 7 -38 31 -41 26 -3 27 -1 27 37 0 39 -1 41 -31 41 -29 0 -30 -2 -27 -37z"/>
    <path d="M5102 3298 c2 -28 8 -34 31 -36 25 -3 27 -1 27 32 0 33 -2 36 -31 36 -28 0 -30 -2 -27 -32z"/>
    <path d="M5282 3298 c2 -28 7 -33 28 -33 21 0 26 5 28 33 3 30 1 32 -28 32 -29 0 -31 -2 -28 -32z"/>
    <path d="M5102 3213 c2 -22 9 -29 31 -31 24 -3 27 0 27 27 0 28 -3 31 -31 31 -27 0 -30 -3 -27 -27z"/>
    <path d="M5282 3213 c2 -22 8 -28 28 -28 20 0 26 6 28 28 3 24 0 27 -28 27 -28 0 -31 -3 -28 -27z"/>
    <path d="M5102 3128 c2 -28 7 -33 28 -33 21 0 26 5 28 33 3 30 1 32 -28 32 -29 0 -31 -2 -28 -32z"/>
    <path d="M5282 3128 c2 -28 7 -33 28 -33 21 0 26 5 28 33 3 30 1 32 -28 32 -29 0 -31 -2 -28 -32z"/>
    <path d="M5112 3071 c-8 -4 -12 -19 -10 -32 2 -18 9 -24 28 -24 21 0 25 5 25 30 0 31 -19 42 -43 26z"/>
    <path d="M5292 3071 c-8 -4 -12 -19 -10 -32 2 -18 9 -24 28 -24 21 0 25 5 25 30 0 31 -19 42 -43 26z"/>
    <path d="M3603 3633 c-19 -7 -16 -60 4 -67 23 -9 35 6 31 40 -3 28 -13 36 -35 27z"/>
    <path d="M3753 3633 c-19 -7 -16 -60 3 -67 34 -13 59 35 32 62 -13 13 -16 13 -35 5z"/>
    <path d="M3485 3601 c-6 -11 9 -23 19 -14 9 9 7 23 -3 23 -6 0 -12 -4 -16 -9z"/>
    <path d="M3885 3601 c-6 -11 9 -23 19 -14 9 9 7 23 -3 23 -6 0 -12 -4 -16 -9z"/>
    <path d="M3564 3475 c0 -71 1 -99 3 -62 2 37 2 96 0 130 -2 34 -3 4 -3 -68z"/>
    <path d="M3816 3553 c-8 -49 -6 -140 4 -178 5 -19 8 14 9 93 0 67 -1 122 -3 122 -2 0 -6 -17 -10 -37z"/>
    <path d="M3597 3544 c-13 -14 -7 -52 10 -58 22 -9 35 6 31 35 -3 23 -27 37 -41 23z"/>
    <path d="M3747 3543 c-13 -13 -7 -51 10 -57 23 -9 47 17 38 43 -6 20 -34 28 -48 14z"/>
    <path d="M3597 3464 c-4 -4 -7 -20 -7 -36 0 -23 4 -28 26 -28 23 0 25 3 22 32 -3 31 -25 48 -41 32z"/>
    <path d="M3747 3463 c-4 -3 -7 -19 -7 -35 0 -23 4 -28 24 -28 26 0 40 23 31 51 -6 19 -35 26 -48 12z"/>
    <path d="M3597 3373 c-4 -3 -7 -19 -7 -35 0 -23 4 -28 25 -28 22 0 25 4 25 35 0 27 -4 35 -18 35 -10 0 -22 -3 -25 -7z"/>
    <path d="M3744 3366 c-10 -26 1 -51 22 -54 24 -3 38 20 29 49 -7 22 -43 25 -51 5z"/>
    <path d="M4343 3633 c-17 -6 -17 -60 0 -66 23 -9 39 9 35 38 -3 29 -13 37 -35 28z"/>
    <path d="M4493 3633 c-19 -7 -16 -60 4 -67 23 -9 35 6 31 40 -3 28 -13 36 -35 27z"/>
    <path d="M4226 3601 c-4 -5 -2 -12 3 -15 5 -4 12 -2 15 3 4 5 2 12 -3 15 -5 4 -12 2 -15 -3z"/>
    <path d="M4626 3601 c-4 -5 -2 -12 3 -15 5 -4 12 -2 15 3 4 5 2 12 -3 15 -5 4 -12 2 -15 -3z"/>
    <path d="M4296 3553 c-8 -49 -6 -140 4 -178 5 -19 8 14 9 93 0 67 -1 122 -3 122 -2 0 -6 -17 -10 -37z"/>
    <path d="M4550 3470 c0 -67 4 -110 10 -110 6 0 10 43 10 110 0 67 -4 110 -10 110 -6 0 -10 -43 -10 -110z"/>
    <path d="M4337 3544 c-12 -12 -8 -52 6 -57 22 -8 39 8 35 34 -3 23 -27 37 -41 23z"/>
    <path d="M4487 3544 c-13 -14 -7 -52 10 -58 22 -9 35 6 31 35 -3 23 -27 37 -41 23z"/>
    <path d="M4337 3464 c-4 -4 -7 -20 -7 -36 0 -23 4 -28 26 -28 23 0 25 3 22 32 -3 31 -25 48 -41 32z"/>
    <path d="M4487 3464 c-4 -4 -7 -20 -7 -36 0 -23 4 -28 26 -28 23 0 25 3 22 32 -3 31 -25 48 -41 32z"/>
    <path d="M4337 3374 c-4 -4 -7 -20 -7 -36 0 -23 4 -28 26 -28 23 0 25 3 22 32 -3 31 -25 48 -41 32z"/>
    <path d="M4487 3373 c-4 -3 -7 -19 -7 -35 0 -23 4 -28 25 -28 22 0 25 4 25 35 0 27 -4 35 -18 35 -10 0 -22 -3 -25 -7z"/>
    <path d="M5957 3633 c-10 -10 -8 -61 2 -67 5 -4 16 -3 25 0 21 8 21 60 0 68 -19 7 -19 7 -27 -1z"/>
    <path d="M6107 3633 c-10 -10 -8 -61 2 -67 5 -4 16 -3 25 0 21 8 21 60 0 68 -19 7 -19 7 -27 -1z"/>
    <path d="M5842 3601 c4 -13 18 -16 19 -4 0 4 -5 9 -11 12 -7 2 -11 -2 -8 -8z"/>
    <path d="M6242 3601 c4 -13 18 -16 19 -4 0 4 -5 9 -11 12 -7 2 -11 -2 -8 -8z"/>
    <path d="M6172 3470 c0 -77 3 -115 8 -100 4 14 8 59 8 100 0 41 -4 86 -8 100 -5 15 -8 -23 -8 -100z"/>
    <path d="M5910 3470 c0 -67 4 -110 10 -110 6 0 10 43 10 110 0 67 -4 110 -10 110 -6 0 -10 -43 -10 -110z"/>
    <path d="M5957 3544 c-10 -10 -9 -52 2 -58 20 -13 42 7 39 33 -3 25 -26 39 -41 25z"/>
    <path d="M6107 3544 c-12 -12 -8 -52 6 -57 22 -8 39 8 35 34 -3 23 -27 37 -41 23z"/>
    <path d="M5957 3464 c-4 -4 -7 -20 -7 -36 0 -23 4 -28 26 -28 23 0 25 3 22 32 -3 31 -25 48 -41 32z"/>
    <path d="M6107 3464 c-4 -4 -7 -20 -7 -36 0 -23 4 -28 26 -28 23 0 25 3 22 32 -3 31 -25 48 -41 32z"/>
    <path d="M5950 3346 c0 -32 3 -36 26 -36 23 0 25 3 22 33 -2 24 -8 33 -25 35 -20 3 -23 -1 -23 -32z"/>
    <path d="M6107 3374 c-4 -4 -7 -20 -7 -36 0 -23 4 -28 26 -28 23 0 25 3 22 32 -3 31 -25 48 -41 32z"/>
    <path d="M6787 3623 c-4 -3 -7 -19 -7 -35 0 -23 4 -28 24 -28 26 0 40 23 31 51 -6 19 -35 26 -48 12z"/>
    <path d="M6934 3606 c-7 -31 1 -46 26 -46 25 0 33 15 26 46 -4 15 -14 24 -26 24 -12 0 -22 -9 -26 -24z"/>
    <path d="M6680 3584 c0 -8 5 -12 10 -9 6 3 10 10 10 16 0 5 -4 9 -10 9 -5 0 -10 -7 -10 -16z"/>
    <path d="M7080 3584 c0 -8 5 -12 10 -9 6 3 10 10 10 16 0 5 -4 9 -10 9 -5 0 -10 -7 -10 -16z"/>
    <path d="M6754 3465 c0 -71 1 -99 3 -62 2 37 2 96 0 130 -2 34 -3 4 -3 -68z"/>
    <path d="M7008 3523 c-2 -38 -1 -95 2 -128 6 -48 7 -34 9 68 0 70 -1 127 -3 127 -2 0 -5 -30 -8 -67z"/>
    <path d="M6787 3533 c-4 -3 -7 -17 -7 -30 0 -18 6 -23 24 -23 30 0 40 13 31 40 -6 19 -35 27 -48 13z"/>
    <path d="M6934 3526 c-10 -26 4 -48 28 -44 17 2 23 10 23 28 0 18 -6 26 -23 28 -13 2 -25 -3 -28 -12z"/>
    <path d="M6784 3446 c-10 -26 1 -51 22 -54 24 -3 38 20 29 49 -7 22 -43 25 -51 5z"/>
    <path d="M6934 3446 c-11 -29 0 -51 26 -51 21 0 25 5 25 30 0 24 -5 31 -23 33 -13 2 -24 -3 -28 -12z"/>
    <path d="M6784 3356 c-10 -26 1 -51 22 -54 24 -3 38 20 29 49 -7 22 -43 25 -51 5z"/>
    <path d="M6934 3356 c-11 -29 0 -51 26 -51 21 0 25 5 25 30 0 24 -5 31 -23 33 -13 2 -24 -3 -28 -12z"/>
    <path d="M2465 2869 c-13 -20 8 -24 130 -24 122 0 143 4 130 24 -9 15 -251 15 -260 0z"/>
    <path d="M570 2840 c0 -20 5 -21 83 -18 65 2 82 6 82 18 0 12 -17 16 -82 18 -78 3 -83 2 -83 -18z"/>
    <path d="M1592 2838 c4 -10 38 -13 136 -13 180 0 176 19 -4 23 -107 2 -135 0 -132 -10z"/>
  </g>
</svg>